<svg xmlns="http://www.w3.org/2000/svg" viewBox="0 0 1024 260" width="1024" height="260">
  <g fill="none" stroke="#FFFFFF" stroke-linecap="square" stroke-linejoin="miter" stroke-width="13">
    <!-- S Top Loop -->
    <path d="M 261 76.5 L 115 76.5 C 80 76.5 62.5 94 62.5 111.5 C 62.5 129 80 146.5 115 146.5 L 160 146.5" />
    <!-- S Bottom Loop -->
    <path d="M 173 146.5 L 210 146.5 C 245 146.5 264.5 164 264.5 181.5 C 264.5 199 245 216.5 210 216.5 L 56 216.5" />
    <!-- O Squircle -->
    <rect x="338.5" y="76.5" width="260" height="140" rx="35" ry="35" />
    <!-- L Right Angle -->
    <path d="M 678.5 70 L 678.5 216.5 L 887 216.5" />
    <!-- Flanking Accent Lines -->
    <line x1="66" y1="241.5" x2="266" y2="241.5" stroke-width="2.5" opacity="0.9" />
    <line x1="771" y1="241.5" x2="972" y2="241.5" stroke-width="2.5" opacity="0.9" />
  </g>
  <text x="519" y="248" text-anchor="middle" fill="#FFFFFF" font-family="'Plus Jakarta Sans', Arial, sans-serif" font-size="20" font-weight="900" letter-spacing="0.35em">SOUL OF LIFESTYLE</text>
</svg>